<?xml version="1.0" encoding="iso-8859-1"?>
<!-- Generator: Adobe Illustrator 20.1.0, SVG Export Plug-In . SVG Version: 6.00 Build 0)  -->
<svg xmlns="http://www.w3.org/2000/svg" xmlns:xlink="http://www.w3.org/1999/xlink" version="1.1" id="&#1057;&#1083;&#1086;&#1081;_1" x="0px" y="0px" viewBox="0 0 64 64" style="enable-background:new 0 0 64 64;" xml:space="preserve">
<linearGradient id="SVGID_1__52514" gradientUnits="userSpaceOnUse" x1="21.9995" y1="10.6665" x2="21.9995" y2="18.5158" spreadMethod="reflect">
	<stop offset="0" style="stop-color:#6DC7FF"/>
	<stop offset="1" style="stop-color:#E6ABFF"/>
</linearGradient>
<circle style="fill:url(#SVGID_1__52514);" cx="21.999" cy="14.997" r="3"/>
<linearGradient id="SVGID_2__52514" gradientUnits="userSpaceOnUse" x1="41.9995" y1="17.5" x2="41.9995" y2="21" spreadMethod="reflect">
	<stop offset="0" style="stop-color:#6DC7FF"/>
	<stop offset="1" style="stop-color:#E6ABFF"/>
</linearGradient>
<path style="fill:url(#SVGID_2__52514);" d="M44.999,21c0-2-1.343-3-3-3c-1.657,0-3,1-3,3H44.999z"/>
<linearGradient id="SVGID_3__52514" gradientUnits="userSpaceOnUse" x1="32" y1="20.3333" x2="32" y2="58.5293" spreadMethod="reflect">
	<stop offset="0" style="stop-color:#1A6DFF"/>
	<stop offset="1" style="stop-color:#C822FF"/>
</linearGradient>
<path style="fill:url(#SVGID_3__52514);" d="M47.003,21H16.996C15.344,21,14,22.343,14,23.994V25v0.997v1.262  c0,0.716,0.257,1.409,0.722,1.949l10.556,12.315C25.743,42.067,26,42.762,26,43.477v6.964c0,0.651,0.319,1.263,0.854,1.635  l8.015,5.567c0.341,0.237,0.738,0.357,1.137,0.357c0.315,0,0.633-0.075,0.924-0.228c0.66-0.346,1.07-1.022,1.07-1.768v-4.532  c0.94,0.334,1.947,0.525,3,0.525c4.963,0,9-4.037,9-9c0-3.704-2.25-6.889-5.453-8.269l4.73-5.521C49.743,28.666,50,27.973,50,27.259  V26v-1v-1.006C50,22.343,48.655,21,47.003,21z M48,42.999c0,3.859-3.141,7-7,7s-7-3.141-7-7s3.141-7,7-7S48,39.139,48,42.999z   M41,33.999c-4.963,0-9,4.037-9,9c0,3.114,1.59,5.862,4.001,7.479l0.009,5.523L28,50.441v-6.964c0-1.193-0.428-2.35-1.205-3.255  L17.177,29h29.647l-4.392,5.124C41.965,34.049,41.489,33.999,41,33.999z M48,26c0,0.552-0.448,1-0.999,1H17.002  C16.449,27,16,26.55,16,25.997V25v-1.006C16,23.446,16.447,23,16.996,23h30.007C47.553,23,48,23.446,48,23.994V25V26z"/>
<linearGradient id="SVGID_4__52514" gradientUnits="userSpaceOnUse" x1="41" y1="39.4998" x2="41" y2="46.1665" spreadMethod="reflect">
	<stop offset="0" style="stop-color:#6DC7FF"/>
	<stop offset="1" style="stop-color:#E6ABFF"/>
</linearGradient>
<polygon style="fill:url(#SVGID_4__52514);" points="44.535,40.878 43.121,39.464 41,41.585 38.879,39.464 37.465,40.878 39.586,42.999   37.465,45.121 38.879,46.535 41,44.413 43.121,46.535 44.535,45.121 42.414,42.999 "/>
<linearGradient id="SVGID_5__52514" gradientUnits="userSpaceOnUse" x1="36" y1="5.4998" x2="36" y2="14.0064" spreadMethod="reflect">
	<stop offset="0" style="stop-color:#6DC7FF"/>
	<stop offset="1" style="stop-color:#E6ABFF"/>
</linearGradient>
<circle style="fill:url(#SVGID_5__52514);" cx="36" cy="9.999" r="4"/>
</svg>
